<svg xmlns="http://www.w3.org/2000/svg" width="54.248" height="58.654" viewBox="0 0 54.248 58.654"><defs><style>.a{fill:#b7b5b5;}</style></defs><path class="a" d="M56.814,47.415l-8.16-14.091a20.776,20.776,0,0,0,2.529-10,21.077,21.077,0,0,0-42.154,0,20.776,20.776,0,0,0,2.529,10L3.4,47.415a3.011,3.011,0,0,0,2.62,4.516H14.66l4.4,7.407a3.154,3.154,0,0,0,2.62,1.505H22.1a3.011,3.011,0,0,0,2.2-1.475l5.811-10,5.811,10.087a3.011,3.011,0,0,0,2.2,1.445h.422a3.011,3.011,0,0,0,2.108-.843,2.619,2.619,0,0,0,.512-.632l4.4-7.407h8.642a3.056,3.056,0,0,0,2.62-4.607ZM21.646,52.021l-2.68-4.486a3.011,3.011,0,0,0-2.559-1.475H11.2L15.5,38.592a21.077,21.077,0,0,0,10.749,5.54Zm8.461-13.64A15.055,15.055,0,1,1,45.162,23.327,15.055,15.055,0,0,1,30.107,38.382Zm13.7,7.678a3.011,3.011,0,0,0-2.559,1.475l-2.68,4.486-4.577-7.979A21.258,21.258,0,0,0,44.71,38.5l4.306,7.467Z" transform="translate(-2.996 -2.25)"/></svg>