<svg xmlns="http://www.w3.org/2000/svg" width="11.705" height="23.171" viewBox="0 0 11.705 23.171"><defs><style>.a{fill:#d95419;}</style></defs><path class="a" d="M77.077,12.341h2.54V22.8a.374.374,0,0,0,.374.374H84.3a.374.374,0,0,0,.374-.374V12.39h2.92a.374.374,0,0,0,.371-.331l.443-3.85a.374.374,0,0,0-.371-.416H84.671V5.38c0-.727.392-1.1,1.164-1.1h2.2a.374.374,0,0,0,.374-.374V.377A.374.374,0,0,0,88.034,0H85c-.021,0-.069,0-.139,0a5.807,5.807,0,0,0-3.8,1.431,3.982,3.982,0,0,0-1.324,3.54V7.793H77.077a.374.374,0,0,0-.374.374v3.8A.374.374,0,0,0,77.077,12.341Z" transform="translate(-76.703)"/></svg>