<svg xmlns="http://www.w3.org/2000/svg" width="23.223" height="23.171" viewBox="0 0 23.223 23.171"><defs><style>.a{fill:#d95419;}</style></defs><g transform="translate(-1187.567 -6314)"><path class="a" d="M9.964,99.73H5.3a.375.375,0,0,0-.375.375v14.977a.375.375,0,0,0,.375.375H9.964a.375.375,0,0,0,.375-.375V100.1A.375.375,0,0,0,9.964,99.73Z" transform="translate(1183.009 6221.715)"/><path class="a" d="M3.076.341A3.074,3.074,0,1,0,6.15,3.414,3.078,3.078,0,0,0,3.076.341Z" transform="translate(1187.567 6313.659)"/><path class="a" d="M115.486,94.761a5.475,5.475,0,0,0-4.1,1.72v-.973a.375.375,0,0,0-.375-.375h-4.465a.375.375,0,0,0-.375.375v14.977a.375.375,0,0,0,.375.375H111.2a.375.375,0,0,0,.375-.375v-7.41c0-2.5.678-3.47,2.419-3.47,1.9,0,2.046,1.559,2.046,3.6v7.282a.375.375,0,0,0,.375.375h4.653a.375.375,0,0,0,.375-.375V102.27C121.445,98.557,120.737,94.761,115.486,94.761Z" transform="translate(1089.345 6226.312)"/></g></svg>