<svg xmlns="http://www.w3.org/2000/svg" width="54.9" height="57.654" viewBox="0 0 54.9 57.654"><defs><style>.a{fill:#b7b5b5;}</style></defs><path class="a" d="M51.469,23.917V23.45A21.845,21.845,0,0,0,36.108,2.512h-.165a22.862,22.862,0,0,0-7.117-.989A22.56,22.56,0,0,0,7.5,23.917a8.243,8.243,0,0,0,0,15.553,21.983,21.983,0,0,0,21.983,19.7h.632A22.34,22.34,0,0,0,51.221,39.5a8.243,8.243,0,0,0,.247-15.58ZM29.981,53.676A16.487,16.487,0,0,1,13.246,39.937H45.588A16.734,16.734,0,0,1,29.981,53.676Zm18.74-19.235H10.251a2.748,2.748,0,1,1,0-5.5h5.5a2.748,2.748,0,1,0,0-5.5H13A17.586,17.586,0,0,1,21.243,9.3v8.656a2.748,2.748,0,0,0,5.5,0V7.211a20.169,20.169,0,0,1,2.253-.247h.495a18.245,18.245,0,0,1,2.748.247V17.955a2.748,2.748,0,0,0,5.5,0V9.217a18.273,18.273,0,0,1,3.242,2.391,16.487,16.487,0,0,1,5,11.843H43.225a2.748,2.748,0,1,0,0,5.5h5.5a2.748,2.748,0,1,1,0,5.5Z" transform="translate(-1.995 -1.518)"/></svg>