<svg xmlns="http://www.w3.org/2000/svg" width="28.177" height="22.894" viewBox="0 0 28.177 22.894"><defs><style>.a{fill:#d95419;}</style></defs><path class="a" d="M28.177,50.71a12.044,12.044,0,0,1-3.328.912A5.744,5.744,0,0,0,27.39,48.43a11.544,11.544,0,0,1-3.663,1.4,5.776,5.776,0,0,0-9.992,3.95,5.948,5.948,0,0,0,.134,1.317A16.351,16.351,0,0,1,1.962,49.053a5.778,5.778,0,0,0,1.775,7.721,5.7,5.7,0,0,1-2.61-.711v.063A5.8,5.8,0,0,0,5.755,61.8a5.765,5.765,0,0,1-1.515.19,5.107,5.107,0,0,1-1.094-.1,5.832,5.832,0,0,0,5.4,4.024,11.607,11.607,0,0,1-7.162,2.464A10.819,10.819,0,0,1,0,68.3a16.262,16.262,0,0,0,8.862,2.592c10.63,0,16.441-8.805,16.441-16.438,0-.255-.009-.5-.021-.747A11.524,11.524,0,0,0,28.177,50.71Z" transform="translate(0 -48)"/></svg>