<svg xmlns="http://www.w3.org/2000/svg" width="75.802" height="58.654" viewBox="0 0 75.802 58.654"><defs><style>.a{fill:#b7b5b5;}</style></defs><path class="a" d="M39.988,33.586a16.975,16.975,0,0,0,5.865-12.835,17.251,17.251,0,0,0-34.5,0,16.975,16.975,0,0,0,5.866,12.835A27.6,27.6,0,0,0,1,58.7a3.45,3.45,0,0,0,6.9,0,20.7,20.7,0,1,1,41.4,0,3.45,3.45,0,0,0,6.9,0A27.6,27.6,0,0,0,39.988,33.586ZM28.6,31.1A10.351,10.351,0,1,1,38.952,20.751,10.351,10.351,0,0,1,28.6,31.1Zm33.605,1.1A17.251,17.251,0,0,0,49.3,3.5a3.45,3.45,0,0,0,0,6.9,10.333,10.333,0,0,1,5.175,19.287,3.445,3.445,0,0,0-.173,5.865l1.346.9.449.242A24.152,24.152,0,0,1,69.9,58.7a3.45,3.45,0,0,0,6.9,0A31.052,31.052,0,0,0,62.207,32.206Z" transform="translate(-1 -3.5)"/></svg>