<svg xmlns="http://www.w3.org/2000/svg" width="25.565" height="17.044" viewBox="0 0 25.565 17.044"><defs><style>.a{fill:#f0f0f0;}.b{fill:#d80027;}.c{fill:#0052b4;}</style></defs><rect class="a" width="25.565" height="17.044" transform="translate(0 0)"/><path class="b" d="M14.381,85.33h-3.2v6.924H0v3.2H11.185v6.924h3.2V95.45H25.565v-3.2H14.381Z" transform="translate(0 -85.33)"/><g transform="translate(15.562 11.486)"><path class="c" d="M393.785,315.358l5.9,3.279v-3.279Z" transform="translate(-389.684 -315.358)"/><path class="c" d="M311.652,315.358l10,5.558v-1.572l-7.175-3.986Z" transform="translate(-311.652 -315.358)"/><path class="c" d="M318.991,349.076,311.652,345v4.078Z" transform="translate(-311.652 -343.518)"/></g><path class="a" d="M311.652,315.358l10,5.558v-1.572l-7.175-3.986Z" transform="translate(-296.09 -303.872)"/><path class="b" d="M311.652,315.358l10,5.558v-1.572l-7.175-3.986Z" transform="translate(-296.09 -303.872)"/><g transform="translate(0 11.486)"><path class="c" d="M4.511,315.356,0,317.862v-2.506Z" transform="translate(0 -315.356)"/><path class="c" d="M34.222,329.51v4.851H25.491Z" transform="translate(-24.218 -328.803)"/></g><path class="b" d="M7.175,315.358,0,319.344v1.572H0l10-5.558Z" transform="translate(0 -303.872)"/><path class="c" d="M5.9,134.237,0,130.958v3.279Z" transform="translate(0 -128.68)"/><path class="c" d="M10,90.888,0,85.33V86.9l7.175,3.986Z" transform="translate(0 -85.33)"/><path class="c" d="M53.366,85.33l7.339,4.078V85.33Z" transform="translate(-50.701 -85.33)"/><path class="a" d="M10,90.888,0,85.33V86.9l7.175,3.986Z" transform="translate(0 -85.33)"/><path class="b" d="M10,90.888,0,85.33V86.9l7.175,3.986Z" transform="translate(0 -85.33)"/><g transform="translate(15.562 0)"><path class="c" d="M421.659,148.952l4.511-2.506v2.506Z" transform="translate(-416.166 -143.394)"/><path class="c" d="M311.652,90.182V85.331h8.731Z" transform="translate(-311.652 -85.331)"/></g><path class="b" d="M314.481,90.888l7.175-3.986V85.33h0l-10,5.558Z" transform="translate(-296.09 -85.33)"/></svg>