<svg xmlns="http://www.w3.org/2000/svg" width="25.249" height="16.833" viewBox="0 0 25.249 16.833"><defs><style>.a{fill:#f0f0f0;}.b{fill:#d80027;}.c{fill:#0052b4;}</style></defs><g transform="translate(0 -85.33)"><rect class="a" width="25.249" height="16.833" transform="translate(0 85.33)"/><path class="b" d="M14.2,85.33H11.046v6.838H0v3.156H11.046v6.838H14.2V95.324H25.249V92.168H14.2Z"/><g transform="translate(15.369 96.674)"><path class="c" d="M393.785,315.358l5.83,3.239v-3.239Z" transform="translate(-389.735 -315.358)"/><path class="c" d="M311.652,315.358l9.88,5.489v-1.552l-7.086-3.937Z" transform="translate(-311.652 -315.358)"/><path class="c" d="M318.9,349.025,311.652,345v4.027Z" transform="translate(-311.652 -343.536)"/></g><path class="a" d="M311.652,315.358l9.88,5.489v-1.552l-7.086-3.937Z" transform="translate(-296.283 -218.684)"/><path class="b" d="M311.652,315.358l9.88,5.489v-1.552l-7.086-3.937Z" transform="translate(-296.283 -218.684)"/><g transform="translate(0 96.674)"><path class="c" d="M4.455,315.356,0,317.831v-2.475Z" transform="translate(0 -315.356)"/><path class="c" d="M34.114,329.51V334.3H25.491Z" transform="translate(-24.234 -328.812)"/></g><path class="b" d="M7.086,315.358,0,319.295v1.552H0l9.88-5.489Z" transform="translate(0 -218.684)"/><g transform="translate(0 85.33)"><path class="c" d="M5.83,134.2,0,130.958V134.2Z" transform="translate(0 -128.708)"/><path class="c" d="M9.88,90.819,0,85.33v1.552l7.086,3.937Z" transform="translate(0 -85.33)"/><path class="c" d="M53.366,85.33l7.248,4.027V85.33Z" transform="translate(-50.734 -85.33)"/></g><path class="a" d="M9.88,90.819,0,85.33v1.552l7.086,3.937Z"/><path class="b" d="M9.88,90.819,0,85.33v1.552l7.086,3.937Z"/><g transform="translate(15.369 85.33)"><path class="c" d="M421.659,148.921l4.455-2.475v2.475Z" transform="translate(-416.234 -143.432)"/><path class="c" d="M311.652,90.122V85.331h8.623Z" transform="translate(-311.652 -85.331)"/></g><path class="b" d="M314.446,90.819l7.086-3.937V85.33h0l-9.88,5.489Z" transform="translate(-296.283)"/></g></svg>